REM MD5 0a8d40000db2b2dd81ce9161bc0eae82
FILE "Lemmings & Oh No! More Lemmings (Europe) (En,Fr,De,Es,It) (Demo).bin" BINARY
  TRACK 01 MODE2/2352
    INDEX 01 00:00:00
  TRACK 02 AUDIO
    INDEX 00 02:59:08
    INDEX 01 03:01:08
  TRACK 03 AUDIO
    INDEX 00 05:46:15
    INDEX 01 05:48:15
  TRACK 04 AUDIO
    INDEX 00 08:29:46
    INDEX 01 08:31:46
REM LEADOUT 11:41:63
